HIERARCHY
ROOT root
{
	OFFSET	0	13.1	24.9
	CHANNELS 6  Xposition Yposition Zposition Xrotation Yrotation Zrotation
	JOINT spine_1
	{
		OFFSET	0	9.99999	0
		CHANNELS 3  Xrotation Yrotation Zrotation
		JOINT spine_2
		{
			OFFSET	0	112	-10
			CHANNELS 3  Xrotation Yrotation Zrotation
			JOINT spine_3
			{
				OFFSET	0	206.5	19.3
				CHANNELS 3  Xrotation Yrotation Zrotation
				JOINT spine_4
				{
					OFFSET	0	110.4	14.6
					CHANNELS 3  Xrotation Yrotation Zrotation
					JOINT neck_1
					{
						OFFSET	0	71.8	-50.3
						CHANNELS 3  Xrotation Yrotation Zrotation
						JOINT neck_2
						{
							OFFSET	0	86.2	-25.8
							CHANNELS 3  Xrotation Yrotation Zrotation
							JOINT head_ee
							{
								OFFSET	0	179.8	-8.7
								CHANNELS 3  Xrotation Yrotation Zrotation
								End Site
								{
									OFFSET	1	0	0
								}
							}
						}
					}
					JOINT left_clavicle
					{
						OFFSET	-43.2	22.4	-70.8
						CHANNELS 3  Xrotation Yrotation Zrotation
						JOINT left_shoulder
						{
							OFFSET	-93.9	-5.79999	48.7
							CHANNELS 3  Xrotation Yrotation Zrotation
							JOINT left_elbow
							{
								OFFSET	-291.4	-30.8	15.2
								CHANNELS 3  Xrotation Yrotation Zrotation
								JOINT left_lowarm_twist
								{
									OFFSET	-110.7	-3.89999	13.6
									CHANNELS 3  Xrotation Yrotation Zrotation
									JOINT left_hand
									{
										OFFSET	-110.7	-3.89999	13.6
										CHANNELS 3  Xrotation Yrotation Zrotation
										JOINT left_ee
										{
											OFFSET	-80.8	-5.10001	12.1
											CHANNELS 3  Xrotation Yrotation Zrotation
											End Site
											{
												OFFSET	1	0	0
											}
										}
									}
								}
							}
						}
					}
					JOINT right_clavicle
					{
						OFFSET	43.2	22.4	-70.8
						CHANNELS 3  Xrotation Yrotation Zrotation
						JOINT right_shoulder
						{
							OFFSET	93.9	-5.79999	48.7
							CHANNELS 3  Xrotation Yrotation Zrotation
							JOINT right_elbow
							{
								OFFSET	291.4	-30.8	15.2
								CHANNELS 3  Xrotation Yrotation Zrotation
								JOINT right_lowarm_twist
								{
									OFFSET	110.7	-3.89999	13.6
									CHANNELS 3  Xrotation Yrotation Zrotation
									JOINT right_hand
									{
										OFFSET	110.7	-3.89999	13.6
										CHANNELS 3  Xrotation Yrotation Zrotation
										JOINT right_ee
										{
											OFFSET	80.8	-5.10001	12.1
											CHANNELS 3  Xrotation Yrotation Zrotation
											End Site
											{
												OFFSET	1	0	0
											}
										}
									}
								}
							}
						}
					}
				}
			}
		}
	}
	JOINT left_hip
	{
		OFFSET	-82.8	-127.5	0.300001
		CHANNELS 3  Xrotation Yrotation Zrotation
		JOINT left_knee
		{
			OFFSET	-28.2	-396.7	2.2
			CHANNELS 3  Xrotation Yrotation Zrotation
			JOINT left_ankle
			{
				OFFSET	-11.7	-411.3	35.4
				CHANNELS 3  Xrotation Yrotation Zrotation
				JOINT left_toes
				{
					OFFSET	0	-60	-88.6
					CHANNELS 3  Xrotation Yrotation Zrotation
					JOINT left_foot_ee
					{
						OFFSET	-22.5	-16.5	-42.2
						CHANNELS 3  Xrotation Yrotation Zrotation
						End Site
						{
							OFFSET	1	0	0
						}
					}
				}
			}
		}
	}
	JOINT right_hip
	{
		OFFSET	82.8	-127.5	0.300001
		CHANNELS 3  Xrotation Yrotation Zrotation
		JOINT right_knee
		{
			OFFSET	28.2	-396.7	2.2
			CHANNELS 3  Xrotation Yrotation Zrotation
			JOINT right_ankle
			{
				OFFSET	11.7	-411.3	35.4
				CHANNELS 3  Xrotation Yrotation Zrotation
				JOINT right_toes
				{
					OFFSET	0	-60	-88.6
					CHANNELS 3  Xrotation Yrotation Zrotation
					JOINT right_foot_ee
					{
						OFFSET	22.5	-16.5	-42.2
						CHANNELS 3  Xrotation Yrotation Zrotation
						End Site
						{
							OFFSET	1	0	0
						}
					}
				}
			}
		}
	}
}
MOTION
Frames: 9
Frame Time: 0.02
2467.71 734.229 -598.861 172.168 -67.5735 178.338 1.22491 -0.483919 -2.9081 1.22956 -0.297969 -2.93297 1.24575 0.261444 -2.93645 1.23378 -0.205388 -2.9409 -22.7121 20.4323 12.4889 -24.4628 33.7733 21.6952 -0.0 0.0 -0.0 3.78129 10.1744 7.72042 -3.77351 -27.3282 57.9687 1.89436 -43.1757 0.749622 -20.6646 -1.16658 2.35648 0.225208 15.3847 7.69432 -0.0 0.0 -0.0 3.69959 6.1716 -6.75476 -20.2775 39.0074 -58.6083 0.408495 11.4399 -0.0409171 -22.2177 1.28753 -2.51445 2.62583 16.53 -10.5861 0.0 0.0 0.0 2.87717 -6.5438 -2.88465 -13.0357 0.313595 1.97162 27.2631 16.5506 -3.64498 -10.4825 0.0 0.0 -0.0 0.0 -0.0 31.1234 23.2643 -20.5566 -54.7774 1.66321 -7.92549 -21.6138 5.0589 -3.3464 -39.6808 0.0 0.0 0.0 0.0 0.0 
2490.08 736.498 -601.942 174.63 -68.2697 -179.132 1.25759 -0.378913 -2.96669 1.26247 -0.189453 -2.98477 1.27315 0.376525 -2.96699 1.26088 -0.0965643 -2.98921 -21.46 21.3427 11.744 -23.3515 35.6166 21.0812 -0.0 0.0 -0.0 3.67648 12.4558 7.60739 -2.95002 -28.2818 57.4811 2.1725 -47.0957 0.94688 -23.2923 -1.3737 2.62182 0.186615 13.9924 6.91528 -0.0 0.0 -0.0 3.21049 5.90821 -5.7823 -21.7171 38.0554 -59.2186 0.368045 10.3328 -0.0332772 -21.6668 1.24414 -2.45879 2.89555 18.6101 -11.4126 0.0 0.0 0.0 3.21849 -2.32316 -2.75759 -12.7075 0.311239 1.92133 28.2907 16.2124 -3.75818 -10.9824 0.0 0.0 -0.0 0.0 -0.0 31.4328 17.4715 -18.1992 -54.1757 1.60495 -7.85332 -21.3259 6.17368 -3.31813 -40.0909 0.0 0.0 0.0 0.0 0.0 
2507.42 737.769 -606.529 176.84 -67.134 -176.961 1.38764 -0.437639 -3.0933 1.39293 -0.240015 -3.11485 1.40671 0.344108 -3.10509 1.39329 -0.150355 -3.12046 -21.4992 21.1395 12.0896 -23.2842 35.0727 21.2638 -0.0 0.0 -0.0 3.70803 14.0308 7.6996 -2.44272 -28.6751 56.8474 2.29003 -48.5967 1.03402 -24.927 -1.50864 2.78204 -0.0730395 13.0068 4.89028 -0.0 0.0 -0.0 2.84325 5.7318 -5.05356 -22.4964 37.4434 -58.9743 0.349501 9.82261 -0.0300323 -21.3067 1.21606 -2.42218 3.00502 18.8614 -12.0296 0.0 0.0 0.0 2.4368 1.73792 -2.015 -11.7374 0.302587 1.77273 29.9399 17.6699 -3.96105 -10.7999 0.0 0.0 -0.0 0.0 -0.0 33.1308 14.0525 -17.2168 -52.2076 1.41982 -7.61316 -22.684 5.45573 -3.51828 -40.179 0.0 0.0 0.0 0.0 0.0 
2525.41 735.021 -613.66 178.747 -68.8583 -174.666 1.43003 -0.675357 -3.41871 1.43642 -0.45658 -3.4547 1.46498 0.190769 -3.47949 1.44827 -0.360807 -3.466 -19.184 21.7601 10.5023 -20.9076 36.5586 19.2656 -0.0 0.0 -0.0 4.9681 15.2651 9.76538 -1.95544 -28.7376 55.2166 2.44401 -50.4364 1.15115 -25.8344 -1.5855 2.8693 0.131775 11.0174 5.39607 -0.0 0.0 -0.0 2.08464 5.87103 -3.51059 -24.1884 36.4527 -58.9005 0.36196 10.1656 -0.0321946 -20.4285 1.14857 -2.33218 3.33688 20.3668 -13.5184 0.0 0.0 0.0 1.57433 5.83446 -1.5451 -8.2287 0.250325 1.23696 31.2717 15.2804 -4.07552 -12.8927 0.0 0.0 -0.0 0.0 -0.0 36.76 11.9069 -14.5408 -46.0518 0.895957 -6.8238 -20.8971 8.69066 -3.29278 -39.9748 0.0 0.0 0.0 0.0 0.0 
2540.93 733.868 -623.697 -178.701 -70.371 -172.303 1.55444 -0.723349 -3.58605 1.56145 -0.493847 -3.62474 1.59359 0.177372 -3.65389 1.57519 -0.401527 -3.63611 -17.0322 22.1654 9.75345 -18.5083 37.2696 17.8954 -0.0 0.0 -0.0 5.44703 15.576 10.5382 -0.0694268 -29.1435 56.4907 2.76494 -53.8569 1.40466 -27.0857 -1.69376 2.98765 0.213696 10.2886 5.63128 -0.0 0.0 -0.0 1.6008 5.83942 -2.53718 -25.1201 35.3231 -59.0167 0.29531 8.32282 -0.0214862 -19.5573 1.08301 -2.24191 3.53248 21.1421 -14.4404 0.0 0.0 0.0 0.327707 5.51407 -0.477674 -4.61347 0.162268 0.689245 31.1328 14.9051 -4.05641 -14.97 0.0 0.0 -0.0 0.0 -0.0 37.8861 10.6662 -13.1233 -42.7793 0.652989 -6.38292 -22.1832 9.71431 -3.51603 -39.6813 0.0 0.0 0.0 0.0 0.0 
2556.18 728.681 -628.13 -179.892 -71.7434 -174.001 1.48286 -0.82798 -3.71512 1.49034 -0.590071 -3.76019 1.53027 0.111573 -3.8045 1.51041 -0.490241 -3.77448 -15.906 22.1866 9.1009 -17.2366 37.4172 16.8561 -0.0 0.0 -0.0 5.99389 15.5304 11.4311 0.981786 -29.3679 56.4022 2.58191 -51.9709 1.25863 -27.8177 -1.75828 3.05578 0.0696232 11.2856 5.10603 -0.0 0.0 -0.0 1.13116 5.60145 -1.61403 -26.2495 34.1543 -58.8674 0.359752 10.1048 -0.0318059 -18.3141 0.991843 -2.11139 3.60106 22.0904 -14.404 0.0 0.0 0.0 0.106855 8.72045 0.029971 -6.80493 0.219775 1.02062 32.9402 13.9129 -4.23614 -16.196 0.0 0.0 -0.0 0.0 -0.0 39.0693 8.84077 -11.7471 -38.3936 0.367747 -5.77209 -22.334 7.00662 -3.48905 -39.3651 0.0 0.0 0.0 0.0 0.0 
2572.36 727.467 -628.654 179.225 -71.5733 -175.491 1.4387 -0.617188 -3.78003 1.44657 -0.375583 -3.81158 1.47264 0.336185 -3.81525 1.45243 -0.27013 -3.82049 -16.2158 22.0357 8.39782 -17.6675 37.5869 16.3119 -0.0 0.0 -0.0 6.071 15.8011 11.546 1.37605 -29.7589 56.6025 2.84695 -54.6503 1.47123 -27.729 -1.75041 3.04756 0.261726 9.43756 5.6022 -0.0 0.0 -0.0 0.885415 4.19032 -1.26809 -26.6354 35.1324 -58.9035 0.304481 8.57751 -0.022834 -19.823 1.10286 -2.26954 3.50495 20.3359 -14.6737 0.0 0.0 0.0 -0.0809757 12.5937 0.454447 -9.68111 0.275939 1.45836 37.5719 14.3957 -4.70043 -15.8097 0.0 0.0 -0.0 0.0 -0.0 36.4887 9.75504 -10.9875 -27.5978 -0.128555 -4.19248 -20.3867 10.414 -3.24407 -40.2085 0.0 0.0 0.0 0.0 0.0 
2590.8 728.454 -633.176 176.996 -72.3292 -178.125 1.25952 -0.486691 -3.76346 1.26737 -0.246402 -3.78675 1.28496 0.471164 -3.76543 1.2652 -0.128985 -3.79256 -16.4601 21.8622 8.29198 -17.939 37.3611 16.2418 -0.0 0.0 -0.0 6.069 15.8269 11.5417 1.86176 -30.6523 57.3679 2.95126 -55.6164 1.55681 -27.1732 -1.70142 2.99583 0.357969 8.62735 5.9032 -0.0 0.0 -0.0 0.348 2.56924 -0.379971 -27.774 35.2212 -58.1164 0.388561 10.8954 -0.0370562 -19.7706 1.09893 -2.2641 3.35549 19.5598 -14.0566 0.0 0.0 0.0 0.285466 16.8519 0.797669 -15.2499 0.321964 2.31122 38.9995 14.6853 -4.83729 -17.4375 0.0 0.0 -0.0 0.0 -0.0 34.8667 10.6685 -10.0565 -19.2929 -0.303382 -2.93114 -14.4327 10.3918 -2.28869 -39.0366 0.0 0.0 0.0 0.0 0.0 
2613.4 723.099 -635.795 176.642 -72.4727 -178.787 1.17012 -0.407092 -3.79385 1.17811 -0.165034 -3.81203 1.1905 0.562252 -3.77401 1.17063 -0.0403875 -3.81539 -16.6844 21.5646 7.60857 -18.2282 37.2067 15.6016 -0.0 0.0 -0.0 6.02974 16.5946 11.4454 2.37113 -31.268 57.959 3.06103 -56.5841 1.64792 -27.5249 -1.73236 3.02862 0.427554 8.04818 6.12579 -0.0 0.0 -0.0 0.0879267 1.45275 0.00128583 -28.7322 35.259 -57.6428 0.396244 11.1055 -0.0385222 -19.9058 1.10907 -2.27813 3.31056 19.0337 -14.0178 0.0 0.0 0.0 0.0748193 19.8266 0.772156 -19.0812 0.30544 2.89872 41.6797 14.7378 -5.0763 -17.0895 0.0 0.0 -0.0 0.0 -0.0 34.1112 11.4176 -9.1371 -13.1671 -0.314458 -1.99176 -12.5334 10.3851 -1.98358 -39.28 0.0 0.0 0.0 0.0 0.0 
